<mxfile host="app.diagrams.net" modified="2022-06-12T15:52:25.777Z" agent="5.0 (Windows)" etag="yE0cs83ga2nbSRDOtyRf" version="19.0.3" type="github">
  <diagram id="O5X3ygYVHky5Fv8AmvNe" name="Page-1">
    <mxGraphModel dx="1185" dy="627" grid="0" gridSize="10" guides="1" tooltips="1" connect="1" arrows="1" fold="1" page="1" pageScale="1" pageWidth="827" pageHeight="1169" math="0" shadow="0">
      <root>
        <mxCell id="0" />
        <mxCell id="1" parent="0" />
        <mxCell id="b6MA6AbSb-JXTZcCMyoF-5" value="" style="rounded=0;whiteSpace=wrap;html=1;fillColor=#dae8fc;strokeColor=#6c8ebf;" vertex="1" parent="1">
          <mxGeometry x="45" y="30" width="90" height="40" as="geometry" />
        </mxCell>
        <mxCell id="b6MA6AbSb-JXTZcCMyoF-6" value="GameObject" style="text;html=1;strokeColor=none;fillColor=none;align=center;verticalAlign=middle;whiteSpace=wrap;rounded=0;" vertex="1" parent="1">
          <mxGeometry x="50" y="35" width="80" height="30" as="geometry" />
        </mxCell>
        <mxCell id="b6MA6AbSb-JXTZcCMyoF-8" value="" style="rounded=0;whiteSpace=wrap;html=1;fillColor=#dae8fc;strokeColor=#6c8ebf;" vertex="1" parent="1">
          <mxGeometry x="180" y="30" width="90" height="40" as="geometry" />
        </mxCell>
        <mxCell id="b6MA6AbSb-JXTZcCMyoF-9" value="" style="rounded=0;whiteSpace=wrap;html=1;fillColor=#dae8fc;strokeColor=#6c8ebf;" vertex="1" parent="1">
          <mxGeometry x="180" y="90" width="90" height="40" as="geometry" />
        </mxCell>
        <mxCell id="b6MA6AbSb-JXTZcCMyoF-10" value="" style="rounded=0;whiteSpace=wrap;html=1;fillColor=#dae8fc;strokeColor=#6c8ebf;" vertex="1" parent="1">
          <mxGeometry x="180" y="150" width="90" height="40" as="geometry" />
        </mxCell>
        <mxCell id="b6MA6AbSb-JXTZcCMyoF-12" value="" style="rounded=0;whiteSpace=wrap;html=1;fillColor=#dae8fc;strokeColor=#6c8ebf;" vertex="1" parent="1">
          <mxGeometry x="310" y="90" width="90" height="40" as="geometry" />
        </mxCell>
        <mxCell id="b6MA6AbSb-JXTZcCMyoF-13" value="" style="rounded=0;whiteSpace=wrap;html=1;fillColor=#dae8fc;strokeColor=#6c8ebf;" vertex="1" parent="1">
          <mxGeometry x="175" y="220" width="100" height="40" as="geometry" />
        </mxCell>
        <mxCell id="b6MA6AbSb-JXTZcCMyoF-15" value="" style="rounded=0;whiteSpace=wrap;html=1;fillColor=#dae8fc;strokeColor=#6c8ebf;" vertex="1" parent="1">
          <mxGeometry x="45" y="150" width="90" height="40" as="geometry" />
        </mxCell>
        <mxCell id="b6MA6AbSb-JXTZcCMyoF-16" value="Weapon" style="text;html=1;strokeColor=none;fillColor=none;align=center;verticalAlign=middle;whiteSpace=wrap;rounded=0;" vertex="1" parent="1">
          <mxGeometry x="60" y="155" width="60" height="30" as="geometry" />
        </mxCell>
        <mxCell id="b6MA6AbSb-JXTZcCMyoF-18" value="Flower" style="text;html=1;strokeColor=none;fillColor=none;align=center;verticalAlign=middle;whiteSpace=wrap;rounded=0;" vertex="1" parent="1">
          <mxGeometry x="195" y="35" width="60" height="30" as="geometry" />
        </mxCell>
        <mxCell id="b6MA6AbSb-JXTZcCMyoF-19" value="Monster" style="text;html=1;strokeColor=none;fillColor=none;align=center;verticalAlign=middle;whiteSpace=wrap;rounded=0;" vertex="1" parent="1">
          <mxGeometry x="195" y="95" width="60" height="30" as="geometry" />
        </mxCell>
        <mxCell id="b6MA6AbSb-JXTZcCMyoF-20" value="Player" style="text;html=1;strokeColor=none;fillColor=none;align=center;verticalAlign=middle;whiteSpace=wrap;rounded=0;" vertex="1" parent="1">
          <mxGeometry x="195" y="155" width="60" height="30" as="geometry" />
        </mxCell>
        <mxCell id="b6MA6AbSb-JXTZcCMyoF-23" value="" style="endArrow=classic;dashed=1;html=1;rounded=0;exitX=1;exitY=0.5;exitDx=0;exitDy=0;entryX=0;entryY=0.5;entryDx=0;entryDy=0;endFill=1;" edge="1" parent="1" source="b6MA6AbSb-JXTZcCMyoF-5" target="b6MA6AbSb-JXTZcCMyoF-8">
          <mxGeometry width="50" height="50" relative="1" as="geometry">
            <mxPoint x="350" y="340" as="sourcePoint" />
            <mxPoint x="400" y="290" as="targetPoint" />
          </mxGeometry>
        </mxCell>
        <mxCell id="b6MA6AbSb-JXTZcCMyoF-24" value="" style="endArrow=classic;dashed=1;html=1;rounded=0;exitX=1;exitY=0.5;exitDx=0;exitDy=0;entryX=0;entryY=0.5;entryDx=0;entryDy=0;endFill=1;" edge="1" parent="1" source="b6MA6AbSb-JXTZcCMyoF-5" target="b6MA6AbSb-JXTZcCMyoF-9">
          <mxGeometry width="50" height="50" relative="1" as="geometry">
            <mxPoint x="150" y="90" as="sourcePoint" />
            <mxPoint x="190" y="60" as="targetPoint" />
          </mxGeometry>
        </mxCell>
        <mxCell id="b6MA6AbSb-JXTZcCMyoF-25" value="" style="endArrow=classic;dashed=1;html=1;rounded=0;entryX=0;entryY=0.5;entryDx=0;entryDy=0;exitX=1;exitY=0.5;exitDx=0;exitDy=0;endFill=1;" edge="1" parent="1" source="b6MA6AbSb-JXTZcCMyoF-5" target="b6MA6AbSb-JXTZcCMyoF-10">
          <mxGeometry width="50" height="50" relative="1" as="geometry">
            <mxPoint x="140" y="80" as="sourcePoint" />
            <mxPoint x="200" y="70" as="targetPoint" />
          </mxGeometry>
        </mxCell>
        <mxCell id="b6MA6AbSb-JXTZcCMyoF-26" value="" style="endArrow=classic;html=1;rounded=0;exitX=1;exitY=0.5;exitDx=0;exitDy=0;entryX=0;entryY=0.5;entryDx=0;entryDy=0;" edge="1" parent="1" source="b6MA6AbSb-JXTZcCMyoF-15" target="b6MA6AbSb-JXTZcCMyoF-9">
          <mxGeometry width="50" height="50" relative="1" as="geometry">
            <mxPoint x="350" y="340" as="sourcePoint" />
            <mxPoint x="400" y="290" as="targetPoint" />
          </mxGeometry>
        </mxCell>
        <mxCell id="b6MA6AbSb-JXTZcCMyoF-27" value="" style="endArrow=classic;html=1;rounded=0;exitX=1;exitY=0.5;exitDx=0;exitDy=0;entryX=0;entryY=0.5;entryDx=0;entryDy=0;" edge="1" parent="1" source="b6MA6AbSb-JXTZcCMyoF-15" target="b6MA6AbSb-JXTZcCMyoF-10">
          <mxGeometry width="50" height="50" relative="1" as="geometry">
            <mxPoint x="150" y="150" as="sourcePoint" />
            <mxPoint x="190" y="120" as="targetPoint" />
          </mxGeometry>
        </mxCell>
        <mxCell id="b6MA6AbSb-JXTZcCMyoF-28" value="InputComponent" style="text;html=1;strokeColor=none;fillColor=none;align=center;verticalAlign=middle;whiteSpace=wrap;rounded=0;" vertex="1" parent="1">
          <mxGeometry x="175" y="225" width="100" height="30" as="geometry" />
        </mxCell>
        <mxCell id="b6MA6AbSb-JXTZcCMyoF-29" value="" style="endArrow=classic;html=1;rounded=0;exitX=0.5;exitY=0;exitDx=0;exitDy=0;entryX=0.5;entryY=1;entryDx=0;entryDy=0;" edge="1" parent="1" source="b6MA6AbSb-JXTZcCMyoF-13" target="b6MA6AbSb-JXTZcCMyoF-10">
          <mxGeometry width="50" height="50" relative="1" as="geometry">
            <mxPoint x="350" y="340" as="sourcePoint" />
            <mxPoint x="400" y="290" as="targetPoint" />
          </mxGeometry>
        </mxCell>
        <mxCell id="b6MA6AbSb-JXTZcCMyoF-31" value="" style="endArrow=classic;html=1;rounded=0;exitX=1;exitY=0.5;exitDx=0;exitDy=0;entryX=0;entryY=0.5;entryDx=0;entryDy=0;" edge="1" parent="1" source="b6MA6AbSb-JXTZcCMyoF-8" target="b6MA6AbSb-JXTZcCMyoF-12">
          <mxGeometry width="50" height="50" relative="1" as="geometry">
            <mxPoint x="350" y="340" as="sourcePoint" />
            <mxPoint x="400" y="290" as="targetPoint" />
          </mxGeometry>
        </mxCell>
        <mxCell id="b6MA6AbSb-JXTZcCMyoF-32" value="" style="endArrow=classic;html=1;rounded=0;exitX=1;exitY=0.5;exitDx=0;exitDy=0;" edge="1" parent="1" source="b6MA6AbSb-JXTZcCMyoF-9">
          <mxGeometry width="50" height="50" relative="1" as="geometry">
            <mxPoint x="280" y="60" as="sourcePoint" />
            <mxPoint x="310" y="110" as="targetPoint" />
          </mxGeometry>
        </mxCell>
        <mxCell id="b6MA6AbSb-JXTZcCMyoF-33" value="" style="endArrow=classic;html=1;rounded=0;exitX=1;exitY=0.5;exitDx=0;exitDy=0;entryX=0;entryY=0.5;entryDx=0;entryDy=0;" edge="1" parent="1" source="b6MA6AbSb-JXTZcCMyoF-10" target="b6MA6AbSb-JXTZcCMyoF-12">
          <mxGeometry width="50" height="50" relative="1" as="geometry">
            <mxPoint x="290" y="70" as="sourcePoint" />
            <mxPoint x="330" y="130" as="targetPoint" />
          </mxGeometry>
        </mxCell>
        <mxCell id="b6MA6AbSb-JXTZcCMyoF-35" value="" style="rounded=0;whiteSpace=wrap;html=1;fillColor=#f8cecc;strokeColor=#b85450;" vertex="1" parent="1">
          <mxGeometry x="311" y="688" width="90" height="40" as="geometry" />
        </mxCell>
        <mxCell id="b6MA6AbSb-JXTZcCMyoF-38" value="Arena" style="text;html=1;strokeColor=none;fillColor=none;align=center;verticalAlign=middle;whiteSpace=wrap;rounded=0;" vertex="1" parent="1">
          <mxGeometry x="336" y="693" width="40" height="30" as="geometry" />
        </mxCell>
        <mxCell id="b6MA6AbSb-JXTZcCMyoF-41" value="" style="rounded=0;whiteSpace=wrap;html=1;fillColor=#d5e8d4;strokeColor=#82b366;" vertex="1" parent="1">
          <mxGeometry x="311" y="597" width="90" height="40" as="geometry" />
        </mxCell>
        <mxCell id="b6MA6AbSb-JXTZcCMyoF-42" value="GameClient" style="text;html=1;strokeColor=none;fillColor=none;align=center;verticalAlign=middle;whiteSpace=wrap;rounded=0;" vertex="1" parent="1">
          <mxGeometry x="321" y="602" width="70" height="30" as="geometry" />
        </mxCell>
        <mxCell id="b6MA6AbSb-JXTZcCMyoF-46" value="" style="rounded=0;whiteSpace=wrap;html=1;fillColor=#dae8fc;strokeColor=#6c8ebf;" vertex="1" parent="1">
          <mxGeometry x="45" y="90" width="90" height="40" as="geometry" />
        </mxCell>
        <mxCell id="b6MA6AbSb-JXTZcCMyoF-47" value="Node" style="text;html=1;strokeColor=none;fillColor=none;align=center;verticalAlign=middle;whiteSpace=wrap;rounded=0;" vertex="1" parent="1">
          <mxGeometry x="67.5" y="95" width="45" height="30" as="geometry" />
        </mxCell>
        <mxCell id="b6MA6AbSb-JXTZcCMyoF-48" value="" style="endArrow=classic;html=1;rounded=0;exitX=1;exitY=0.5;exitDx=0;exitDy=0;entryX=0;entryY=0.5;entryDx=0;entryDy=0;" edge="1" parent="1" source="b6MA6AbSb-JXTZcCMyoF-46" target="b6MA6AbSb-JXTZcCMyoF-9">
          <mxGeometry width="50" height="50" relative="1" as="geometry">
            <mxPoint x="30" y="390" as="sourcePoint" />
            <mxPoint x="80" y="340" as="targetPoint" />
          </mxGeometry>
        </mxCell>
        <mxCell id="b6MA6AbSb-JXTZcCMyoF-55" value="" style="rounded=0;whiteSpace=wrap;html=1;fillColor=#d5e8d4;strokeColor=#82b366;" vertex="1" parent="1">
          <mxGeometry x="437" y="90" width="90" height="40" as="geometry" />
        </mxCell>
        <mxCell id="b6MA6AbSb-JXTZcCMyoF-52" value="GameServer" style="text;html=1;strokeColor=none;fillColor=none;align=center;verticalAlign=middle;whiteSpace=wrap;rounded=0;" vertex="1" parent="1">
          <mxGeometry x="444" y="95" width="76" height="30" as="geometry" />
        </mxCell>
        <mxCell id="b6MA6AbSb-JXTZcCMyoF-56" value="" style="endArrow=classic;html=1;rounded=0;exitX=1;exitY=0.5;exitDx=0;exitDy=0;entryX=0;entryY=0.5;entryDx=0;entryDy=0;" edge="1" parent="1" source="b6MA6AbSb-JXTZcCMyoF-12" target="b6MA6AbSb-JXTZcCMyoF-55">
          <mxGeometry width="50" height="50" relative="1" as="geometry">
            <mxPoint x="358" y="262" as="sourcePoint" />
            <mxPoint x="414" y="270" as="targetPoint" />
          </mxGeometry>
        </mxCell>
        <mxCell id="b6MA6AbSb-JXTZcCMyoF-57" value="" style="rounded=0;whiteSpace=wrap;html=1;fillColor=#d5e8d4;strokeColor=#82b366;" vertex="1" parent="1">
          <mxGeometry x="437" y="220" width="90" height="40" as="geometry" />
        </mxCell>
        <mxCell id="b6MA6AbSb-JXTZcCMyoF-58" value="Connection" style="text;html=1;strokeColor=none;fillColor=none;align=center;verticalAlign=middle;whiteSpace=wrap;rounded=0;" vertex="1" parent="1">
          <mxGeometry x="446" y="225" width="72" height="30" as="geometry" />
        </mxCell>
        <mxCell id="b6MA6AbSb-JXTZcCMyoF-61" value="" style="rounded=0;whiteSpace=wrap;html=1;fillColor=#d5e8d4;strokeColor=#82b366;" vertex="1" parent="1">
          <mxGeometry x="437" y="291" width="90" height="40" as="geometry" />
        </mxCell>
        <mxCell id="b6MA6AbSb-JXTZcCMyoF-63" value="Server" style="text;html=1;strokeColor=none;fillColor=none;align=center;verticalAlign=middle;whiteSpace=wrap;rounded=0;" vertex="1" parent="1">
          <mxGeometry x="452" y="296" width="60" height="30" as="geometry" />
        </mxCell>
        <mxCell id="b6MA6AbSb-JXTZcCMyoF-64" value="" style="endArrow=classic;html=1;rounded=0;exitX=0.5;exitY=0;exitDx=0;exitDy=0;endFill=1;entryX=0.5;entryY=1;entryDx=0;entryDy=0;" edge="1" parent="1" source="b6MA6AbSb-JXTZcCMyoF-61" target="b6MA6AbSb-JXTZcCMyoF-57">
          <mxGeometry width="50" height="50" relative="1" as="geometry">
            <mxPoint x="364" y="345" as="sourcePoint" />
            <mxPoint x="536" y="277" as="targetPoint" />
          </mxGeometry>
        </mxCell>
        <mxCell id="b6MA6AbSb-JXTZcCMyoF-65" value="" style="rounded=0;whiteSpace=wrap;html=1;fillColor=#d5e8d4;strokeColor=#82b366;" vertex="1" parent="1">
          <mxGeometry x="561" y="220" width="90" height="40" as="geometry" />
        </mxCell>
        <mxCell id="b6MA6AbSb-JXTZcCMyoF-66" value="" style="rounded=0;whiteSpace=wrap;html=1;fillColor=#d5e8d4;strokeColor=#82b366;" vertex="1" parent="1">
          <mxGeometry x="310" y="220" width="90" height="40" as="geometry" />
        </mxCell>
        <mxCell id="b6MA6AbSb-JXTZcCMyoF-69" value="ServerInput" style="text;html=1;strokeColor=none;fillColor=none;align=center;verticalAlign=middle;whiteSpace=wrap;rounded=0;" vertex="1" parent="1">
          <mxGeometry x="322" y="225" width="68" height="30" as="geometry" />
        </mxCell>
        <mxCell id="b6MA6AbSb-JXTZcCMyoF-70" value="ServerOutput" style="text;html=1;strokeColor=none;fillColor=none;align=center;verticalAlign=middle;whiteSpace=wrap;rounded=0;" vertex="1" parent="1">
          <mxGeometry x="569.5" y="225" width="74" height="30" as="geometry" />
        </mxCell>
        <mxCell id="b6MA6AbSb-JXTZcCMyoF-73" value="" style="endArrow=classic;html=1;rounded=0;exitX=0.5;exitY=1;exitDx=0;exitDy=0;entryX=0.5;entryY=0;entryDx=0;entryDy=0;" edge="1" parent="1" source="b6MA6AbSb-JXTZcCMyoF-65" target="b6MA6AbSb-JXTZcCMyoF-74">
          <mxGeometry width="50" height="50" relative="1" as="geometry">
            <mxPoint x="595" y="166" as="sourcePoint" />
            <mxPoint x="673" y="170" as="targetPoint" />
          </mxGeometry>
        </mxCell>
        <mxCell id="b6MA6AbSb-JXTZcCMyoF-74" value="Отправка ArenaModel" style="text;html=1;strokeColor=none;fillColor=none;align=center;verticalAlign=middle;whiteSpace=wrap;rounded=0;" vertex="1" parent="1">
          <mxGeometry x="569.5" y="296" width="73" height="30" as="geometry" />
        </mxCell>
        <mxCell id="b6MA6AbSb-JXTZcCMyoF-79" value="" style="endArrow=classic;html=1;rounded=0;exitX=1;exitY=1;exitDx=0;exitDy=0;entryX=0;entryY=0;entryDx=0;entryDy=0;" edge="1" parent="1" source="b6MA6AbSb-JXTZcCMyoF-12" target="b6MA6AbSb-JXTZcCMyoF-65">
          <mxGeometry width="50" height="50" relative="1" as="geometry">
            <mxPoint x="316" y="353" as="sourcePoint" />
            <mxPoint x="417" y="181" as="targetPoint" />
          </mxGeometry>
        </mxCell>
        <mxCell id="b6MA6AbSb-JXTZcCMyoF-80" value="Получение InputComponent" style="text;html=1;strokeColor=none;fillColor=none;align=center;verticalAlign=middle;whiteSpace=wrap;rounded=0;" vertex="1" parent="1">
          <mxGeometry x="305.75" y="296" width="98.5" height="30" as="geometry" />
        </mxCell>
        <mxCell id="b6MA6AbSb-JXTZcCMyoF-82" value="" style="endArrow=classic;html=1;rounded=0;exitX=1;exitY=0.5;exitDx=0;exitDy=0;entryX=0;entryY=0.5;entryDx=0;entryDy=0;" edge="1" parent="1" source="b6MA6AbSb-JXTZcCMyoF-28" target="b6MA6AbSb-JXTZcCMyoF-66">
          <mxGeometry width="50" height="50" relative="1" as="geometry">
            <mxPoint x="364" y="295" as="sourcePoint" />
            <mxPoint x="414" y="245" as="targetPoint" />
          </mxGeometry>
        </mxCell>
        <mxCell id="b6MA6AbSb-JXTZcCMyoF-84" value="" style="endArrow=classic;html=1;rounded=0;entryX=0.5;entryY=1;entryDx=0;entryDy=0;exitX=0.5;exitY=0;exitDx=0;exitDy=0;" edge="1" parent="1" source="b6MA6AbSb-JXTZcCMyoF-80" target="b6MA6AbSb-JXTZcCMyoF-66">
          <mxGeometry width="50" height="50" relative="1" as="geometry">
            <mxPoint x="364" y="295" as="sourcePoint" />
            <mxPoint x="414" y="245" as="targetPoint" />
          </mxGeometry>
        </mxCell>
        <mxCell id="b6MA6AbSb-JXTZcCMyoF-89" value="" style="endArrow=classic;html=1;rounded=0;entryX=0;entryY=0.5;entryDx=0;entryDy=0;exitX=1;exitY=0.5;exitDx=0;exitDy=0;" edge="1" parent="1" source="b6MA6AbSb-JXTZcCMyoF-66" target="b6MA6AbSb-JXTZcCMyoF-57">
          <mxGeometry width="50" height="50" relative="1" as="geometry">
            <mxPoint x="364" y="295" as="sourcePoint" />
            <mxPoint x="414" y="245" as="targetPoint" />
          </mxGeometry>
        </mxCell>
        <mxCell id="b6MA6AbSb-JXTZcCMyoF-90" value="" style="endArrow=classic;html=1;rounded=0;exitX=0;exitY=0.5;exitDx=0;exitDy=0;entryX=1;entryY=0.5;entryDx=0;entryDy=0;" edge="1" parent="1" source="b6MA6AbSb-JXTZcCMyoF-65" target="b6MA6AbSb-JXTZcCMyoF-57">
          <mxGeometry width="50" height="50" relative="1" as="geometry">
            <mxPoint x="364" y="295" as="sourcePoint" />
            <mxPoint x="538" y="240" as="targetPoint" />
          </mxGeometry>
        </mxCell>
        <mxCell id="b6MA6AbSb-JXTZcCMyoF-93" value="" style="endArrow=classic;html=1;rounded=0;exitX=0;exitY=1;exitDx=0;exitDy=0;entryX=1;entryY=0;entryDx=0;entryDy=0;" edge="1" parent="1" source="b6MA6AbSb-JXTZcCMyoF-55" target="b6MA6AbSb-JXTZcCMyoF-66">
          <mxGeometry width="50" height="50" relative="1" as="geometry">
            <mxPoint x="364" y="295" as="sourcePoint" />
            <mxPoint x="409" y="200" as="targetPoint" />
          </mxGeometry>
        </mxCell>
        <mxCell id="b6MA6AbSb-JXTZcCMyoF-94" value="" style="endArrow=classic;html=1;rounded=0;entryX=0.5;entryY=0;entryDx=0;entryDy=0;exitX=0.5;exitY=1;exitDx=0;exitDy=0;" edge="1" parent="1" source="b6MA6AbSb-JXTZcCMyoF-55" target="b6MA6AbSb-JXTZcCMyoF-57">
          <mxGeometry width="50" height="50" relative="1" as="geometry">
            <mxPoint x="364" y="295" as="sourcePoint" />
            <mxPoint x="414" y="245" as="targetPoint" />
          </mxGeometry>
        </mxCell>
        <mxCell id="b6MA6AbSb-JXTZcCMyoF-95" value="" style="rounded=0;whiteSpace=wrap;html=1;fillColor=#dae8fc;strokeColor=#6c8ebf;" vertex="1" parent="1">
          <mxGeometry x="437" y="597" width="90" height="40" as="geometry" />
        </mxCell>
        <mxCell id="b6MA6AbSb-JXTZcCMyoF-30" value="ArenaModel" style="text;html=1;strokeColor=none;fillColor=none;align=center;verticalAlign=middle;whiteSpace=wrap;rounded=0;" vertex="1" parent="1">
          <mxGeometry x="320" y="95" width="70" height="30" as="geometry" />
        </mxCell>
        <mxCell id="b6MA6AbSb-JXTZcCMyoF-96" value="ArenaModel" style="text;html=1;strokeColor=none;fillColor=none;align=center;verticalAlign=middle;whiteSpace=wrap;rounded=0;" vertex="1" parent="1">
          <mxGeometry x="447" y="602" width="70" height="30" as="geometry" />
        </mxCell>
        <mxCell id="b6MA6AbSb-JXTZcCMyoF-97" value="" style="rounded=0;whiteSpace=wrap;html=1;fillColor=#d5e8d4;strokeColor=#82b366;" vertex="1" parent="1">
          <mxGeometry x="437" y="524" width="90" height="40" as="geometry" />
        </mxCell>
        <mxCell id="b6MA6AbSb-JXTZcCMyoF-98" value="" style="rounded=0;whiteSpace=wrap;html=1;fillColor=#d5e8d4;strokeColor=#82b366;" vertex="1" parent="1">
          <mxGeometry x="311" y="524" width="90" height="40" as="geometry" />
        </mxCell>
        <mxCell id="b6MA6AbSb-JXTZcCMyoF-101" value="" style="rounded=0;whiteSpace=wrap;html=1;fillColor=#d5e8d4;strokeColor=#82b366;" vertex="1" parent="1">
          <mxGeometry x="185" y="524" width="90" height="40" as="geometry" />
        </mxCell>
        <mxCell id="b6MA6AbSb-JXTZcCMyoF-102" value="" style="endArrow=classic;html=1;rounded=0;entryX=0.5;entryY=0;entryDx=0;entryDy=0;exitX=0.5;exitY=1;exitDx=0;exitDy=0;" edge="1" parent="1" source="b6MA6AbSb-JXTZcCMyoF-98" target="b6MA6AbSb-JXTZcCMyoF-41">
          <mxGeometry width="50" height="50" relative="1" as="geometry">
            <mxPoint x="528" y="479" as="sourcePoint" />
            <mxPoint x="414" y="395" as="targetPoint" />
          </mxGeometry>
        </mxCell>
        <mxCell id="b6MA6AbSb-JXTZcCMyoF-103" value="" style="endArrow=classic;html=1;rounded=0;entryX=0;entryY=0.5;entryDx=0;entryDy=0;exitX=1;exitY=0.5;exitDx=0;exitDy=0;" edge="1" parent="1" source="b6MA6AbSb-JXTZcCMyoF-101" target="b6MA6AbSb-JXTZcCMyoF-98">
          <mxGeometry width="50" height="50" relative="1" as="geometry">
            <mxPoint x="364" y="445" as="sourcePoint" />
            <mxPoint x="414" y="395" as="targetPoint" />
          </mxGeometry>
        </mxCell>
        <mxCell id="b6MA6AbSb-JXTZcCMyoF-104" value="" style="endArrow=classic;html=1;rounded=0;entryX=1;entryY=0.5;entryDx=0;entryDy=0;exitX=0;exitY=0.5;exitDx=0;exitDy=0;" edge="1" parent="1" source="b6MA6AbSb-JXTZcCMyoF-97" target="b6MA6AbSb-JXTZcCMyoF-98">
          <mxGeometry width="50" height="50" relative="1" as="geometry">
            <mxPoint x="364" y="445" as="sourcePoint" />
            <mxPoint x="414" y="395" as="targetPoint" />
          </mxGeometry>
        </mxCell>
        <mxCell id="b6MA6AbSb-JXTZcCMyoF-105" value="Client" style="text;html=1;strokeColor=none;fillColor=none;align=center;verticalAlign=middle;whiteSpace=wrap;rounded=0;" vertex="1" parent="1">
          <mxGeometry x="326" y="529" width="60" height="30" as="geometry" />
        </mxCell>
        <mxCell id="b6MA6AbSb-JXTZcCMyoF-106" value="ClientInput" style="text;html=1;strokeColor=none;fillColor=none;align=center;verticalAlign=middle;whiteSpace=wrap;rounded=0;" vertex="1" parent="1">
          <mxGeometry x="450" y="529" width="64" height="30" as="geometry" />
        </mxCell>
        <mxCell id="b6MA6AbSb-JXTZcCMyoF-108" value="ClientOutput" style="text;html=1;strokeColor=none;fillColor=none;align=center;verticalAlign=middle;whiteSpace=wrap;rounded=0;" vertex="1" parent="1">
          <mxGeometry x="191" y="529" width="78" height="30" as="geometry" />
        </mxCell>
        <mxCell id="b6MA6AbSb-JXTZcCMyoF-109" value="" style="endArrow=classic;html=1;rounded=0;entryX=0;entryY=1;entryDx=0;entryDy=0;exitX=1;exitY=0;exitDx=0;exitDy=0;" edge="1" parent="1" source="b6MA6AbSb-JXTZcCMyoF-41" target="b6MA6AbSb-JXTZcCMyoF-97">
          <mxGeometry width="50" height="50" relative="1" as="geometry">
            <mxPoint x="364" y="495" as="sourcePoint" />
            <mxPoint x="414" y="445" as="targetPoint" />
          </mxGeometry>
        </mxCell>
        <mxCell id="b6MA6AbSb-JXTZcCMyoF-112" value="" style="rounded=0;whiteSpace=wrap;html=1;fillColor=#dae8fc;strokeColor=#6c8ebf;" vertex="1" parent="1">
          <mxGeometry x="180" y="597" width="100" height="40" as="geometry" />
        </mxCell>
        <mxCell id="b6MA6AbSb-JXTZcCMyoF-110" value="InputComponent" style="text;html=1;strokeColor=none;fillColor=none;align=center;verticalAlign=middle;whiteSpace=wrap;rounded=0;" vertex="1" parent="1">
          <mxGeometry x="180" y="602" width="100" height="30" as="geometry" />
        </mxCell>
        <mxCell id="b6MA6AbSb-JXTZcCMyoF-114" value="" style="endArrow=classic;html=1;rounded=0;entryX=0.5;entryY=1;entryDx=0;entryDy=0;exitX=0.5;exitY=0;exitDx=0;exitDy=0;" edge="1" parent="1" source="b6MA6AbSb-JXTZcCMyoF-112" target="b6MA6AbSb-JXTZcCMyoF-101">
          <mxGeometry width="50" height="50" relative="1" as="geometry">
            <mxPoint x="230" y="580" as="sourcePoint" />
            <mxPoint x="414" y="495" as="targetPoint" />
          </mxGeometry>
        </mxCell>
        <mxCell id="b6MA6AbSb-JXTZcCMyoF-116" value="" style="endArrow=classic;html=1;rounded=0;entryX=0.5;entryY=1;entryDx=0;entryDy=0;exitX=0.5;exitY=0;exitDx=0;exitDy=0;" edge="1" parent="1" source="b6MA6AbSb-JXTZcCMyoF-35" target="b6MA6AbSb-JXTZcCMyoF-41">
          <mxGeometry width="50" height="50" relative="1" as="geometry">
            <mxPoint x="364" y="745" as="sourcePoint" />
            <mxPoint x="414" y="695" as="targetPoint" />
          </mxGeometry>
        </mxCell>
        <mxCell id="b6MA6AbSb-JXTZcCMyoF-119" value="" style="endArrow=classic;html=1;rounded=0;entryX=0;entryY=0;entryDx=0;entryDy=0;exitX=1;exitY=1;exitDx=0;exitDy=0;" edge="1" parent="1" source="b6MA6AbSb-JXTZcCMyoF-112" target="b6MA6AbSb-JXTZcCMyoF-35">
          <mxGeometry width="50" height="50" relative="1" as="geometry">
            <mxPoint x="364" y="620" as="sourcePoint" />
            <mxPoint x="414" y="570" as="targetPoint" />
          </mxGeometry>
        </mxCell>
        <mxCell id="b6MA6AbSb-JXTZcCMyoF-120" value="" style="endArrow=classic;html=1;rounded=0;entryX=1;entryY=0;entryDx=0;entryDy=0;exitX=0;exitY=1;exitDx=0;exitDy=0;" edge="1" parent="1" source="b6MA6AbSb-JXTZcCMyoF-95" target="b6MA6AbSb-JXTZcCMyoF-35">
          <mxGeometry width="50" height="50" relative="1" as="geometry">
            <mxPoint x="364" y="570" as="sourcePoint" />
            <mxPoint x="414" y="520" as="targetPoint" />
          </mxGeometry>
        </mxCell>
        <mxCell id="b6MA6AbSb-JXTZcCMyoF-121" value="" style="endArrow=classic;html=1;rounded=0;entryX=1;entryY=0.5;entryDx=0;entryDy=0;exitX=0;exitY=0.5;exitDx=0;exitDy=0;" edge="1" parent="1" source="b6MA6AbSb-JXTZcCMyoF-95" target="b6MA6AbSb-JXTZcCMyoF-41">
          <mxGeometry width="50" height="50" relative="1" as="geometry">
            <mxPoint x="364" y="570" as="sourcePoint" />
            <mxPoint x="414" y="520" as="targetPoint" />
          </mxGeometry>
        </mxCell>
        <mxCell id="b6MA6AbSb-JXTZcCMyoF-122" value="Отправка InputComponent" style="text;html=1;strokeColor=none;fillColor=none;align=center;verticalAlign=middle;whiteSpace=wrap;rounded=0;" vertex="1" parent="1">
          <mxGeometry x="180.75" y="453" width="98.5" height="30" as="geometry" />
        </mxCell>
        <mxCell id="b6MA6AbSb-JXTZcCMyoF-123" value="Получение ArenaModel" style="text;html=1;strokeColor=none;fillColor=none;align=center;verticalAlign=middle;whiteSpace=wrap;rounded=0;" vertex="1" parent="1">
          <mxGeometry x="445" y="453" width="73" height="30" as="geometry" />
        </mxCell>
        <mxCell id="b6MA6AbSb-JXTZcCMyoF-124" value="" style="endArrow=classic;html=1;rounded=0;exitX=0.5;exitY=0;exitDx=0;exitDy=0;entryX=0.5;entryY=1;entryDx=0;entryDy=0;" edge="1" parent="1" source="b6MA6AbSb-JXTZcCMyoF-101" target="b6MA6AbSb-JXTZcCMyoF-122">
          <mxGeometry width="50" height="50" relative="1" as="geometry">
            <mxPoint x="364" y="370" as="sourcePoint" />
            <mxPoint x="414" y="320" as="targetPoint" />
          </mxGeometry>
        </mxCell>
        <mxCell id="b6MA6AbSb-JXTZcCMyoF-125" value="" style="endArrow=classic;html=1;rounded=0;entryX=0.5;entryY=0;entryDx=0;entryDy=0;exitX=0.5;exitY=1;exitDx=0;exitDy=0;" edge="1" parent="1" source="b6MA6AbSb-JXTZcCMyoF-123" target="b6MA6AbSb-JXTZcCMyoF-97">
          <mxGeometry width="50" height="50" relative="1" as="geometry">
            <mxPoint x="364" y="370" as="sourcePoint" />
            <mxPoint x="414" y="320" as="targetPoint" />
          </mxGeometry>
        </mxCell>
      </root>
    </mxGraphModel>
  </diagram>
</mxfile>
